# xmcd CD database file
#
# Track frame offsets:
#	183
#	15673
#	27690
#	43693
#	64508
#	80183
#	83723
#	96563
#	118188
#	130330
#	145255
#	158865
#	170770
#	192575
#	209135
#	226640
#	239485
#	251840
#
# Disc length: 3576 seconds
#
# Revision: 0
# Processed by: cddbd v1.5.2PL0 Copyright (c) Steve Scherf et al.
# Submitted via: CDex 1.70beta2
#
DISCID=100df612
DTITLE=100 Folk Celsius - Redgrass
DYEAR=1987
DGENRE=Country
TTITLE0=Daddy, buy me an airplane
TTITLE1=Hey
TTITLE2=Nine pound hammer
TTITLE3=Will the circle be unbroken
TTITLE4=Worried man blues
TTITLE5=Dig it
TTITLE6=Mama don't 'low
TTITLE7=Sweet old homeland
TTITLE8=Done gone
TTITLE9=Roll in my sweet baby's arms
TTITLE10=There's no girl like Jojo
TTITLE11=On the range
TTITLE12=Orange blossom special
TTITLE13=Kori-dal
TTITLE14=BMX a csodabringa
TTITLE15=TV Julia
TTITLE16=Nyelvtörő
TTITLE17=Goodbye summer goodbye
EXTD=YEAR: 1987
EXTT0=
EXTT1=
EXTT2=
EXTT3=
EXTT4=
EXTT5=
EXTT6=
EXTT7=
EXTT8=
EXTT9=
EXTT10=
EXTT11=
EXTT12=
EXTT13=
EXTT14=
EXTT15=
EXTT16=
EXTT17=
PLAYORDER=
